<svg xmlns="http://www.w3.org/2000/svg" version="1.1" xmlns:xlink="http://www.w3.org/1999/xlink" width="1500" height="1500" viewBox="0 0 1500 1500"><rect width="1500" height="1500" x="0" y="0" id="background" stroke="transparent" fill="#e1e587"></rect><svg xml:space="preserve" width="1000" height="1000" data-version="2" data-id="lg_odJu7EzvJtJUmgGG0H" viewBox="0 0 559 417" x="250" y="250"><rect width="100%" height="100%" fill="transparent"></rect><path fill="#1e421d" d="M12.23 290.634v39.78h-6.7v-62.54h10.93l19.82 51.61h.33l19.96-51.61h10.88v62.54h-7.27v-40.3q0-7.23.62-15.07h-.38l-21.39 55.37h-5.84l-21.2-55.42h-.33q.57 6.56.57 15.64"></path><rect width="61.92" height="62.54" x="-30.96" y="-31.27" fill="none" rx="0" ry="0" transform="translate(36.99 299.64)"></rect><path fill="#1e421d" d="M88.84 322.854q-7.51-8.51-7.51-23.83 0-15.33 7.53-23.72 7.53-8.38 21.2-8.38 13.66 0 21.24 8.53 7.58 8.53 7.58 23.57 0 15.04-7.61 23.64-7.6 8.6-21.26 8.6-13.66 0-21.17-8.41m37.06-42.96-2.63-3.26q-2.64-3.25-13.02-3.25-10.39 0-15.81 6.56-5.41 6.55-5.41 19.17 0 12.62 5.41 19.2 5.42 6.58 15.78 6.58t15.66-6.53q5.3-6.54 5.3-19.25t-5.28-19.22"></path><rect width="57.55" height="64.34" x="-28.77" y="-32.17" fill="none" rx="0" ry="0" transform="translate(110.6 299.6)"></rect><path fill="#1e421d" d="M169.44 274.334v56.08h-7.28v-56.08h-19.81v-6.46h46.9v6.46Z"></path><rect width="46.9" height="62.54" x="-23.45" y="-31.27" fill="none" rx="0" ry="0" transform="translate(166.3 299.64)"></rect><path fill="#1e421d" d="M201.13 322.854q-7.51-8.51-7.51-23.83 0-15.33 7.54-23.72 7.53-8.38 21.19-8.38t21.24 8.53q7.58 8.53 7.58 23.57 0 15.04-7.6 23.64-7.6 8.6-21.27 8.6-13.66 0-21.17-8.41m37.07-42.96-2.64-3.26q-2.63-3.25-13.02-3.25-10.38 0-15.8 6.56-5.42 6.55-5.42 19.17 0 12.62 5.42 19.2t15.78 6.58q10.36 0 15.66-6.53 5.3-6.54 5.3-19.25t-5.28-19.22"></path><rect width="57.55" height="64.34" x="-28.77" y="-32.17" fill="none" rx="0" ry="0" transform="translate(222.9 299.6)"></rect><path fill="#1e421d" d="M272.37 274.234v23.91h9.98q7.65 0 11.26-3.02 3.61-3.02 3.61-9.2 0-6.17-3.66-8.93-3.65-2.76-11.73-2.76Zm0 30.18v26h-7.27v-62.54h17.15q11.46 0 16.97 4.39 5.51 4.4 5.51 13.28 0 12.46-12.54 16.78l16.96 28.09h-8.6l-15.16-26Z"></path><rect width="44.05" height="62.54" x="-22.02" y="-31.27" fill="none" rx="0" ry="0" transform="translate(287.63 299.64)"></rect><path fill="#1e421d" d="M351.78 274.234v23.91h9.98q7.65 0 11.26-3.02 3.61-3.02 3.61-9.2 0-6.17-3.65-8.93-3.66-2.76-11.74-2.76Zm0 30.18v26h-7.27v-62.54h17.15q11.46 0 16.97 4.39 5.51 4.4 5.51 13.28 0 12.46-12.54 16.78l16.96 28.09h-8.6l-15.16-26Z"></path><rect width="44.05" height="62.54" x="-22.02" y="-31.27" fill="none" rx="0" ry="0" transform="translate(367.04 299.64)"></rect><path fill="#1e421d" d="M433.47 323.904v6.51h-34.83v-62.54h34.83v6.46h-27.56v20.15h25.9v6.41h-25.9v23.01Z"></path><rect width="34.83" height="62.54" x="-17.41" y="-31.27" fill="none" rx="0" ry="0" transform="translate(416.56 299.64)"></rect><path fill="#1e421d" d="M489.41 267.874h6.79v62.54h-8.31l-34.17-52.47h-.34q.67 9.55.67 16.92v35.55h-6.7v-62.54h8.22l34.07 52.27h.34q-.72-12.31-.57-16.39Z"></path><rect width="48.85" height="62.54" x="-24.43" y="-31.27" fill="none" rx="0" ry="0" transform="translate(472.27 299.64)"></rect><path fill="#1e421d" d="M532.65 274.334v56.08h-7.27v-56.08h-19.82v-6.46h46.91v6.46Z"></path><rect width="46.91" height="62.54" x="-23.45" y="-31.27" fill="none" rx="0" ry="0" transform="translate(529.51 299.64)"></rect><path fill="#1e421d" d="M152.75 382.654q-1.34-.67-2.66-.67-1.05 0-1.88.33-.84.34-1.44 1.06-.59.72-.91 1.84-.31 1.13-.31 2.69 0 .8.16 1.53.15.73.45 1.37.29.63.72 1.15.43.52.97.89t1.18.57q.64.2 1.37.2.52 0 .95-.04.42-.05.81-.18.38-.13.75-.36.38-.23.8-.59l.34.39q-.49.37-.95.62-.45.25-.93.41-.48.16-1.01.23t-1.17.07q-1.26 0-2.34-.45-1.07-.46-1.85-1.29-.78-.84-1.22-2.02-.44-1.18-.44-2.63 0-1.48.48-2.66.49-1.18 1.34-2.01.86-.83 2.02-1.28 1.16-.44 2.52-.44 1.71 0 3.27.85-.27 1.34-.82 2.49l-.22-.11q.1-.61.1-1.21 0-.53-.08-.75"></path><rect width="9.91" height="12.78" x="-4.96" y="-6.39" fill="none" rx="0" ry="0" transform="translate(149.6 388.27)"></rect><path fill="#1e421d" d="M162.59 388.034q0-.7-.14-1.14-.13-.45-.36-.7-.23-.25-.53-.35-.3-.1-.64-.1-.42 0-.78.07-.36.08-.72.23-.36.15-.74.38-.37.23-.8.54v5.73q0 .26.04.42.04.16.18.27.13.11.37.19.24.09.63.19l-.07.2q-.48-.07-.81-.1-.34-.04-.68-.04t-.97.14l-.05-.09q.16-.24.16-.88v-9.94q0-.56-.05-.93-.05-.38-.19-.6-.14-.22-.38-.31-.24-.1-.51-.1t-.33.01l-.03-.15q1.35-.4 2.52-.4.17.44.17.94v4.87q.57-.39 1.04-.65.47-.25.88-.4.41-.15.78-.21.37-.05.75-.05.53 0 .96.13.44.14.75.45.32.31.51.82.19.5.22 1.25v5.16q0 .2.1.34.09.13.25.22.15.09.35.15.2.07.42.13l-.08.2q-.46-.1-1.09-.1-.62 0-1.25.14l-.05-.09q.17-.24.17-.88Z"></path><rect width="9.7" height="13.39" x="-4.85" y="-6.7" fill="none" rx="0" ry="0" transform="translate(160.54 387.77)"></rect><path fill="#1e421d" d="M168.56 392.334q0 .65.3.97.31.31 1.09.46l-.06.2q-.96-.14-1.54-.14-.46 0-1.1.14l-.05-.09q.16-.24.16-.88v-5.32q0-1.18-.28-1.58-.27-.4-1.18-.34l-.03-.15q1.37-.41 2.51-.41.18.43.18.95Zm-2.08-11.97.17.05 1.92 3.26-.44.22-2.57-2.73-.03-.19q.39-.17.95-.61"></path><rect width="4.42" height="13.6" x="-2.21" y="-6.8" fill="none" rx="0" ry="0" transform="translate(168.24 387.66)"></rect><path fill="#1e421d" d="M177.31 392.884q0 .15.06.27.06.12.15.2.09.07.26.15.16.07.29.11.12.05.34.11l-.06.2q-.53-.1-1.06-.1-.65 0-1.29.14l-.05-.09q.17-.24.17-.88v-.55q-.41.78-1.29 1.25-.87.47-1.77.47-.95 0-1.54-.49-.58-.5-.58-1.47 0-.63.26-1.12.26-.49.69-.84.44-.34 1.12-.61.69-.27 1.42-.43.72-.17 1.69-.31v-.76q0-2.28-1.8-2.28-.58 0-1.42.28-.84.29-1.42.75l-.34-.39q.72-.57 1.72-.94.99-.38 1.85-.38.38 0 .73.07.34.07.7.26.35.19.6.47.25.29.41.77.16.48.16 1.08Zm-3.86.65q.72 0 1.51-.48.79-.47 1.16-1.19v-2.53q-2.12.31-3.03.94-.91.64-.91 1.85 0 .74.32 1.08.31.33.95.33"></path><rect width="7.47" height="8.99" x="-3.73" y="-4.5" fill="none" rx="0" ry="0" transform="translate(175.18 390.17)"></rect><path fill="#1e421d" d="M185.1 383.054q0-1.18-.27-1.58-.28-.41-1.19-.35l-.03-.15q1.37-.4 2.51-.4.18.43.18.94v10.82q0 .65.31.97.3.31 1.08.46l-.06.2q-.96-.14-1.54-.14-.46 0-1.1.14l-.05-.09q.16-.24.16-.88Zm4.93 10.38-3.07-4.04v-.19l3.07-3.1q.24-.25-.17-.39-.37-.12-1.05-.06l-.05-.21q1.07-.22 2.47-.25l.13.25-3.45 3.45q3.22 4.04 3.59 4.31.38.27.93.4l-.01.26q-1.36-.1-2.06.1l-.12-.07q.02-.18-.21-.46"></path><rect width="8.82" height="13.39" x="-4.41" y="-6.7" fill="none" rx="0" ry="0" transform="translate(188.52 387.77)"></rect><path fill="#1e421d" d="M200.22 388.034q0-.7-.13-1.14-.13-.45-.36-.7-.23-.25-.53-.35-.31-.1-.65-.1-.41 0-.77.07-.36.08-.72.23-.37.15-.74.38t-.8.54v5.73q0 .26.04.42.04.16.17.27.13.11.38.19.24.09.63.19l-.07.2q-.48-.07-.82-.1-.33-.04-.67-.04t-.98.14l-.05-.09q.17-.24.17-.88v-9.94q0-.56-.05-.93-.06-.38-.19-.6-.14-.22-.38-.31-.24-.1-.51-.1t-.33.01l-.03-.15q1.35-.4 2.51-.4.18.44.18.94v4.87q.57-.39 1.04-.65.47-.25.88-.4.41-.15.78-.21.37-.05.75-.05.52 0 .96.13.43.14.75.45.31.31.51.82.19.5.22 1.25v5.16q0 .2.1.34.09.13.24.22.16.09.36.15.2.07.41.13l-.07.2q-.47-.1-1.09-.1-.62 0-1.25.14l-.05-.09q.16-.24.16-.88Z"></path><rect width="9.69" height="13.39" x="-4.84" y="-6.7" fill="none" rx="0" ry="0" transform="translate(198.18 387.77)"></rect><path fill="#1e421d" d="M208.06 385.194q1.91 0 3 1.17t1.09 3.26q0 1.21-.56 2.26-.56 1.05-1.51 1.66-.96.62-2.07.62-1.92 0-3-1.16-1.08-1.15-1.08-3.28 0-1.26.55-2.3.56-1.04 1.51-1.64.95-.59 2.07-.59m-.16.57q-.66 0-1.14.19-.48.19-.77.52-.29.32-.47.82-.17.5-.23 1.02-.07.52-.07 1.21 0 1.1.26 1.92.27.81.71 1.27.44.45.93.66.5.21 1.06.21.65 0 1.13-.2.49-.21.78-.53.29-.33.46-.83.18-.51.24-1.02t.06-1.17q0-.92-.17-1.64-.18-.73-.46-1.17-.29-.45-.68-.74-.4-.29-.8-.41-.4-.11-.84-.11m1.13-5.35.17-.05q.56.44.95.61l-.03.19-2.56 2.73-.44-.22Z"></path><rect width="8.22" height="13.8" x="-4.11" y="-6.9" fill="none" rx="0" ry="0" transform="translate(208.54 387.76)"></rect><path fill="#1e421d" d="M219.93 392.884q0 .15.06.27.06.12.15.2.09.07.25.15.17.07.29.11.13.05.35.11l-.06.2q-.54-.1-1.06-.1-.65 0-1.29.14l-.05-.09q.17-.24.17-.88v-.55q-.41.78-1.29 1.25-.88.47-1.77.47-.96 0-1.54-.49-.59-.5-.59-1.47 0-.63.26-1.12.27-.49.7-.84.44-.34 1.12-.61.69-.27 1.41-.43.73-.17 1.7-.31v-.76q0-2.28-1.8-2.28-.58 0-1.42.28-.85.29-1.42.75l-.34-.39q.72-.57 1.71-.94 1-.38 1.86-.38.38 0 .73.07.34.07.69.26.36.19.61.47.25.29.41.77.16.48.16 1.08Zm-3.86.65q.72 0 1.51-.48.79-.47 1.16-1.19v-2.53q-2.12.31-3.03.94-.91.64-.91 1.85 0 .74.31 1.08.32.33.96.33"></path><rect width="7.48" height="8.99" x="-3.74" y="-4.5" fill="none" rx="0" ry="0" transform="translate(217.79 390.17)"></rect><path fill="#1e421d" d="M229 391.534q0 1.13.25 1.56.25.43.8.43.61 0 1.48-.46l.26.36q-1.37.74-2.24.74-.47 0-.76-.08-.29-.08-.53-.32-.24-.24-.34-.71-.11-.47-.11-1.22v-5.63l-1.24.08v-.53q.65-.15 1.24-.19v-1.18q.71-.39 1.16-1.13l.25.1q-.14.33-.18.75-.04.42-.04 1.41h2.85v.29q-.34.14-.7.24-.36.1-.74.1H229Z"></path><rect width="5.28" height="10.91" x="-2.64" y="-5.46" fill="none" rx="0" ry="0" transform="translate(229.71 389.2)"></rect><path fill="#1e421d" d="M233.99 387.674q0-.55-.05-.93-.06-.37-.19-.6-.14-.22-.38-.31t-.84-.08l-.03-.15q1.35-.41 2.51-.41.18.44.18.95v1.02l.03.03q.35-.48.67-.85.32-.38.65-.63t.7-.38q.36-.12.81-.12.28 0 .62.05l-.48 2.02-.31-.09q0-.12-.01-.34-.02-.22-.05-.43-.03-.21-.07-.36-.05-.16-.11-.16-.24 0-.48.11-.25.1-.54.33-.29.24-.64.61-.35.37-.79.9v4.84q0 .26.04.42.04.16.17.27.14.11.38.19.24.09.63.19l-.07.2q-.48-.07-.82-.1-.33-.04-.54-.04-.47 0-1.11.14l-.04-.09q.16-.24.16-.88Z"></path><rect width="6.17" height="8.77" x="-3.08" y="-4.38" fill="none" rx="0" ry="0" transform="translate(236.09 390.08)"></rect><path fill="#1e421d" d="M245.95 392.884q0 .15.06.27.06.12.15.2.09.07.25.15.17.07.29.11.13.05.35.11l-.06.2q-.54-.1-1.06-.1-.65 0-1.29.14l-.05-.09q.17-.24.17-.88v-.55q-.41.78-1.29 1.25-.88.47-1.77.47-.96 0-1.54-.49-.59-.5-.59-1.47 0-.63.26-1.12.27-.49.7-.84.44-.34 1.12-.61.69-.27 1.41-.43.73-.17 1.7-.31v-.76q0-2.28-1.8-2.28-.58 0-1.42.28-.85.29-1.42.75l-.34-.39q.72-.57 1.71-.94 1-.38 1.86-.38.38 0 .73.07.34.07.69.26.36.19.61.47.25.29.41.77.16.48.16 1.08Zm-3.86.65q.72 0 1.51-.48.79-.47 1.16-1.19v-2.53q-2.12.31-3.03.94-.91.64-.91 1.85 0 .74.31 1.08.32.33.96.33"></path><rect width="7.48" height="8.99" x="-3.74" y="-4.5" fill="none" rx="0" ry="0" transform="translate(243.81 390.17)"></rect><path fill="#1e421d" d="M252.59 385.194q1.91 0 3 1.17t1.09 3.26q0 1.21-.56 2.26-.56 1.05-1.51 1.66-.96.62-2.07.62-1.92 0-3-1.16-1.08-1.15-1.08-3.28 0-1.26.55-2.3.56-1.04 1.51-1.64.95-.59 2.07-.59m-.16.57q-.66 0-1.14.19-.48.19-.77.52-.29.32-.47.82-.17.5-.23 1.02-.07.52-.07 1.21 0 1.1.26 1.92.27.81.71 1.27.44.45.93.66.5.21 1.06.21.65 0 1.13-.2.49-.21.78-.53.29-.33.46-.83.18-.51.24-1.02t.06-1.17q0-.92-.17-1.64-.18-.73-.46-1.17-.29-.45-.68-.74-.4-.29-.8-.41-.4-.11-.84-.11"></path><rect width="8.22" height="8.97" x="-4.11" y="-4.49" fill="none" rx="0" ry="0" transform="translate(253.07 390.18)"></rect><path fill="#1e421d" d="M264.73 391.534q0 1.13.25 1.56.24.43.8.43.61 0 1.48-.46l.26.36q-1.37.74-2.25.74-.46 0-.75-.08t-.53-.32q-.24-.24-.35-.71-.1-.47-.1-1.22v-5.63l-1.25.08v-.53q.66-.15 1.25-.19v-1.18q.71-.39 1.15-1.13l.26.1q-.14.33-.18.75-.04.42-.04 1.41h2.85v.29q-.35.14-.7.24-.36.1-.74.1h-1.41Z"></path><rect width="5.29" height="10.91" x="-2.65" y="-5.46" fill="none" rx="0" ry="0" transform="translate(265.44 389.2)"></rect><path fill="#1e421d" d="M274.94 392.884q0 .15.06.27.06.12.15.2.09.07.25.15.17.07.3.11.12.05.34.11l-.06.2q-.53-.1-1.06-.1-.65 0-1.29.14l-.05-.09q.17-.24.17-.88v-.55q-.41.78-1.29 1.25-.87.47-1.77.47-.95 0-1.54-.49-.59-.5-.59-1.47 0-.63.27-1.12.26-.49.69-.84.44-.34 1.12-.61.69-.27 1.42-.43.72-.17 1.69-.31v-.76q0-2.28-1.8-2.28-.58 0-1.42.28-.84.29-1.42.75l-.34-.39q.72-.57 1.72-.94.99-.38 1.85-.38.38 0 .73.07.34.07.7.26.35.19.6.47.25.29.41.77.16.48.16 1.08Zm-3.86.65q.72 0 1.51-.48.79-.47 1.16-1.19v-2.53q-2.12.31-3.03.94-.91.64-.91 1.85 0 .74.32 1.08.31.33.95.33"></path><rect width="7.48" height="8.99" x="-3.74" y="-4.5" fill="none" rx="0" ry="0" transform="translate(272.8 390.17)"></rect><path fill="#1e421d" d="m285.2 385.444-3.53 9.16q-.23.59-.39.97-.16.39-.38.8-.21.41-.42.66-.2.26-.47.47-.27.22-.58.33-1.32.05-2.32-.89.45-.55 1.25-.94l.09.1q.34.77 1.08 1.11.35-.29.73-.96.38-.67.93-2.17l-2.95-6.99q-.23-.59-.52-.85-.29-.25-.59-.25-.3.01-.69.06l-.09-.16q1.39-.7 2.45-.7l2.49 6.08q.17.4.39 1.53h.14q.4-1.32.41-1.34l1.85-5.31q.11-.3-.25-.42-.35-.13-1.08-.07l-.05-.2q.71-.15 2.4-.19Z"></path><rect width="8.85" height="12.66" x="-4.42" y="-6.33" fill="none" rx="0" ry="0" transform="translate(281.27 392.02)"></rect><path fill="#1e421d" d="M287.78 392.024q.39.67.42 1.44.03.81-.38 1.64-.41.82-1.24 1.45l-.29-.3q.56-.42.89-1.13.33-.72.19-1.4l-.76.29q-.35-.75-.51-1.47.89-.44 1.68-.52"></path><rect width="2.11" height="4.53" x="-1.06" y="-2.27" fill="none" rx="0" ry="0" transform="translate(287.66 394.79)"></rect><path fill="#1e421d" d="m297.96 394.254-.58-.17-2.66-6.99q-.11-.31-.23-.54-.11-.22-.3-.36-.19-.13-.5-.16-.3-.04-.77.02l-.09-.16q1.4-.7 2.5-.7l2.19 5.86q.29.95.39 1.53h.14q.03-.11.12-.41.09-.31.17-.52.07-.21.16-.41l2.17-5.01q.16-.38-.47-.49-.34-.05-.86-.01l-.05-.2q1.06-.22 2.34-.26l.11.17Z"></path><rect width="8.91" height="9.06" x="-4.46" y="-4.53" fill="none" rx="0" ry="0" transform="translate(297.79 390.22)"></rect><path fill="#1e421d" d="M313.17 390.634q.03-.01.1-.09.08-.08.16-.18.08-.1.14-.19.06-.09.05-.12-.2-.2-.62-.54-.41-.34-.9-.78.4-.55.73-.98.34-.44.5-.68-.1-.09-.28-.22-.18-.14-.35-.22l-1.25 1.58q-.26-.2-.5-.39-.25-.19-.47-.35-.21-.16-.39-.29-.17-.12-.29-.21-.1.1-.23.28-.14.18-.21.39l1.54 1.22-1.22 1.58q.01.04.09.12.08.07.18.15.09.08.19.14.09.06.12.05l1.32-1.49Zm3.71-5.32-.01-.02q-.01.42-.06.92-.06.5-.22 1.05-.15.54-.44 1.14-.28.59-.73 1.21-.45.61-1.1 1.23-.66.63-1.54 1.23 0 .04-.02.11-.01.07-.04.14-.04.07-.09.11-.06.05-.16.05l-.21.21q.4.14.81.29.41.16.81.35.13 0 .29-.01.17 0 .35.02.18.02.38.08.19.06.39.21 0 .07-.01.08-.01 0-.06.05-.24-.12-.45-.19-.22-.08-.53-.04.16.09.32.2.17.11.31.32-.03.07-.16.1-.24-.24-.51-.41-.26-.16-.58-.14-.14 0-.23.01-.1.01-.19.05-.09.03-.19.08l-.25.1q-.03-.02-.04-.02-.02-.01-.03-.01-.01 0-.02-.01-.01-.02-.02-.06.08-.1.16-.15.08-.05.17-.08.08-.04.18-.06.1-.03.22-.07-.27-.15-.54-.25l-.47-.18q-.21-.07-.34-.12-.13-.05-.13-.09 0-.11.2-.26-.08 0-.13-.04-.06-.05-.1-.1-.04-.05-.07-.11-.02-.05-.03-.08h-.46q-.24 0-.46-.01-.23-.01-.47-.05-.02.05-.06.12-.03.08-.09.14-.06.07-.14.11-.07.03-.17.02-.17.09-.26.17.35.22.71.45.36.22.72.51.14.04.3.06.15.02.31.07.15.04.31.14.15.1.3.3 0 .07-.02.07t-.06.05q-.1-.1-.18-.16-.08-.06-.17-.11-.08-.04-.2-.07-.11-.03-.28-.05.34.22.45.66-.01.04-.04.06-.02.02-.09.01-.16-.27-.38-.5-.22-.23-.52-.3-.27-.04-.57-.02-.3.03-.62.1-.05-.07-.05-.13.2-.14.45-.17l.51-.04q-.21-.17-.44-.32-.22-.15-.41-.27-.18-.11-.3-.21-.12-.09-.12-.16 0-.09.06-.12t.16-.12q-.06-.06-.08-.13-.03-.08-.04-.15-.01-.08-.01-.15 0-.07.01-.12-.74-.41-1.32-.92-.57-.51-1.01-1.03-.43-.53-.75-1.03-.32-.51-.55-.9-.46-.15-.91-.3t-.86-.31q-.41-.17-.76-.35-.36-.18-.64-.41-.11-.1-.09-.24.03-.14.19-.14l4.35.38q1.46-.29 2.46-.48 1.01-.19 1.68-.35.66-.16 1.03-.34.38-.17.57-.44.26-.45.51-.77t.53-.52q.28-.2.59-.29.31-.09.68-.09.23 0 .43.03.2.03.36.09v-.02l1.27-.44h.03q.02.01.02.03v.02l-.43 1.18 1.19-.05q.06 0 .03.05Z"></path><rect width="15.52" height="11.69" x="-7.76" y="-5.84" fill="none" rx="0" ry="0" transform="translate(310.73 389.3)"></rect><path fill="#1e421d" d="M320.03 387.674q0-.55-.06-.93-.05-.37-.19-.6-.14-.22-.38-.31t-.51-.09q-.27 0-.32.01l-.04-.15q1.35-.41 2.52-.41.17.44.17.95v.24q.48-.33.89-.57.41-.24.8-.4.39-.17.81-.25.41-.09.91-.09.45 0 .9.12.44.12.79.41.35.3.57.82.22.51.22 1.3v5.16q0 .2.1.34.1.13.25.22t.35.15q.2.07.42.13l-.08.2q-.46-.1-1.23-.1-.48 0-1.11.14l-.05-.09q.17-.24.17-.88v-4.96q0-.7-.13-1.14-.14-.45-.37-.7-.22-.25-.53-.35-.3-.1-.64-.1-.42 0-.78.07-.36.08-.72.23-.36.15-.73.38-.38.23-.81.54v5.73q0 .26.04.42.04.16.18.27.13.11.37.19.24.09.63.19l-.06.2q-.49-.07-.82-.1-.34-.04-.55-.04-.47 0-1.1.14l-.05-.09q.17-.24.17-.88Z"></path><rect width="9.7" height="8.89" x="-4.85" y="-4.45" fill="none" rx="0" ry="0" transform="translate(323.88 390.02)"></rect><path fill="#1e421d" d="M340.02 383.054q0-.57-.05-.9-.05-.33-.2-.58-.16-.25-.45-.35-.29-.1-.76-.1l-.03-.15q1.37-.4 2.51-.4.17.44.17.94v10.82q0 .65.31.97.3.31 1.08.46l-.06.2q-.96-.14-1.53-.14-.45 0-1.11.14l-.05-.09q.17-.24.17-.88v-.07q-1.22 1.24-2.55 1.24-.7 0-1.35-.3-.66-.29-1.16-.82-.51-.53-.81-1.32-.3-.79-.3-1.72 0-2.23 1.17-3.52t3.4-1.29q.7 0 1.6.13Zm0 3.19q-.94-.43-2.21-.43-.64 0-1.12.18-.47.18-.77.49-.29.3-.46.79-.18.48-.24 1.02t-.06 1.27q0 1.9.7 2.89.71 1 1.83 1 1.22 0 2.33-1.14Z"></path><rect width="8.75" height="13.59" x="-4.38" y="-6.79" fill="none" rx="0" ry="0" transform="translate(338.73 387.87)"></rect><path fill="#1e421d" d="M354.08 390.634q.03-.01.11-.09.07-.08.15-.18.09-.1.14-.19.06-.09.05-.12-.2-.2-.61-.54t-.91-.78q.4-.55.74-.98.33-.44.49-.68-.1-.09-.28-.22-.18-.14-.35-.22l-1.25 1.58q-.26-.2-.5-.39l-.46-.35q-.22-.16-.39-.29-.18-.12-.3-.21-.09.1-.23.28-.14.18-.21.39l1.54 1.22-1.22 1.58q.01.04.09.12.08.07.18.15.1.08.19.14.09.06.12.05l1.32-1.49Zm3.72-5.32-.02-.02q-.01.42-.06.92-.06.5-.21 1.05-.16.54-.44 1.14-.29.59-.74 1.21-.45.61-1.1 1.23-.65.63-1.54 1.23 0 .04-.01.11-.02.07-.05.14-.03.07-.09.11-.06.05-.16.05l-.21.21q.4.14.81.29.41.16.81.35.13 0 .3-.01.16 0 .34.02.18.02.38.08.19.06.39.21 0 .07-.01.08-.01 0-.05.05-.24-.12-.46-.19-.22-.08-.53-.04.16.09.33.2.16.11.3.32-.03.07-.16.1-.24-.24-.5-.41-.27-.16-.59-.14-.14 0-.23.01-.1.01-.19.05-.09.03-.19.08l-.25.1q-.02-.02-.04-.02-.02-.01-.03-.01-.01 0-.02-.01-.01-.02-.02-.06.09-.1.17-.15.07-.05.16-.08.08-.04.18-.06.1-.03.22-.07-.27-.15-.54-.25l-.47-.18q-.21-.07-.33-.12-.13-.05-.13-.09 0-.11.19-.26-.08 0-.13-.04-.06-.05-.1-.1-.04-.05-.06-.11-.03-.05-.04-.08h-.45q-.24 0-.47-.01-.23-.01-.47-.05l-.05.12q-.04.08-.1.14-.06.07-.13.11-.08.03-.18.02-.17.09-.25.17.34.22.7.45.37.22.72.51.14.04.3.06.15.02.31.07.16.04.31.14t.3.3q0 .07-.02.07t-.06.05q-.1-.1-.18-.16-.08-.06-.16-.11-.09-.04-.2-.07-.12-.03-.29-.05.34.22.46.66-.02.04-.04.06-.03.02-.1.01-.16-.27-.38-.5-.21-.23-.52-.3-.27-.04-.57-.02-.3.03-.62.1-.05-.07-.05-.13.2-.14.45-.17l.52-.04q-.22-.17-.44-.32-.23-.15-.42-.27-.18-.11-.3-.21-.12-.09-.12-.16 0-.09.06-.12t.16-.12q-.06-.06-.08-.13-.03-.08-.04-.15-.01-.08-.01-.15.01-.07.01-.12-.74-.41-1.32-.92-.57-.51-1-1.03-.44-.53-.76-1.03-.32-.51-.55-.9-.46-.15-.91-.3-.44-.15-.86-.31-.41-.17-.76-.35-.36-.18-.63-.41-.12-.1-.1-.24.03-.14.2-.14l4.35.38q1.45-.29 2.46-.48t1.67-.35q.66-.16 1.04-.34.37-.17.56-.44.26-.45.51-.77t.53-.52q.28-.2.59-.29.31-.09.68-.09.23 0 .43.03.2.03.37.09v-.02l1.26-.44h.03q.02.01.02.03v.02l-.43 1.18 1.19-.05q.06 0 .03.05Z"></path><rect width="15.52" height="11.69" x="-7.76" y="-5.84" fill="none" rx="0" ry="0" transform="translate(351.64 389.3)"></rect><path fill="#1e421d" d="M371.94 391.944v-3.81q0-.72-.16-1.17-.15-.45-.4-.7-.24-.25-.54-.34-.31-.08-.61-.08-.58 0-1.19.23-.62.23-1.31.73.13.45.13 1.02v5.06q0 .21.1.34.09.14.25.23.15.09.35.15l.4.12-.06.2q-.49-.1-1.25-.1-.47 0-1.1.14l-.05-.09q.17-.23.17-.88v-4.86q0-.72-.16-1.16-.17-.45-.43-.71-.27-.25-.6-.34-.33-.09-.66-.09-.37 0-.69.08-.33.08-.64.23-.31.15-.64.37-.33.23-.72.53v5.65q0 .26.04.42.05.16.18.27.13.11.37.19.24.09.63.19l-.06.2q-.48-.07-.82-.1-.34-.04-.54-.04-.48 0-1.11.14l-.05-.09q.17-.24.17-.88v-5.32q0-.55-.06-.93-.05-.37-.19-.6-.13-.22-.37-.31-.25-.09-.62-.09h-.11q-.05 0-.11.01l-.04-.15q1.36-.41 2.52-.41.17.44.17.95v.34q.45-.34.82-.59.37-.24.72-.4.36-.16.72-.23.37-.08.81-.08.33 0 .66.06.34.05.65.19.31.13.58.36.26.22.45.57.4-.3.78-.52.37-.23.74-.38.36-.15.73-.22.38-.07.79-.07.46 0 .91.12t.82.42q.37.3.59.81.23.51.23 1.3v5.06q0 .21.1.34.09.14.25.23.15.09.35.15.2.06.41.12l-.07.2q-.49-.1-1.25-.1-.47 0-1.1.14l-.05-.09q.17-.24.17-.88Z"></path><rect width="14.8" height="8.79" x="-7.4" y="-4.39" fill="none" rx="0" ry="0" transform="translate(367.34 390.07)"></rect><path fill="#1e421d" d="M386.83 388.034q0-.7-.14-1.14-.13-.45-.36-.7-.23-.25-.53-.35-.3-.1-.64-.1-.42 0-.78.07-.36.08-.72.23-.36.15-.73.38-.38.23-.81.54v5.73q0 .26.04.42.04.16.18.27.13.11.37.19.24.09.63.19l-.07.2q-.48-.07-.81-.1-.34-.04-.68-.04t-.97.14l-.05-.09q.17-.24.17-.88v-9.94q0-.56-.06-.93-.05-.38-.19-.6-.14-.22-.38-.31-.24-.1-.51-.1t-.33.01l-.03-.15q1.35-.4 2.52-.4.17.44.17.94v4.87q.57-.39 1.04-.65.47-.25.88-.4.41-.15.78-.21.37-.05.75-.05.53 0 .96.13.44.14.75.45.32.31.51.82.19.5.22 1.25v5.16q0 .2.1.34.09.13.25.22.15.09.35.15.2.07.42.13l-.08.2q-.46-.1-1.09-.1-.62 0-1.25.14l-.05-.09q.17-.24.17-.88Z"></path><rect width="9.7" height="13.39" x="-4.85" y="-6.7" fill="none" rx="0" ry="0" transform="translate(384.78 387.77)"></rect><path fill="#1e421d" d="M396.82 392.884q0 .15.07.27.06.12.15.2.08.07.25.15.17.07.29.11.12.05.35.11l-.07.2q-.53-.1-1.05-.1-.66 0-1.3.14l-.05-.09q.18-.24.18-.88v-.55q-.42.78-1.29 1.25-.88.47-1.78.47-.95 0-1.54-.49-.58-.5-.58-1.47 0-.63.26-1.12.26-.49.7-.84.43-.34 1.12-.61.68-.27 1.41-.43.73-.17 1.7-.31v-.76q0-2.28-1.8-2.28-.58 0-1.43.28-.84.29-1.41.75l-.34-.39q.72-.57 1.71-.94.99-.38 1.86-.38.38 0 .72.07.35.07.7.26t.61.47q.25.29.41.77.15.48.15 1.08Zm-3.86.65q.73 0 1.52-.48.78-.47 1.16-1.19v-2.53q-2.13.31-3.04.94-.91.64-.91 1.85 0 .74.32 1.08.32.33.95.33m-.45-13.17.16.05 1.93 3.26-.44.22-2.57-2.73-.04-.19q.39-.17.96-.61"></path><rect width="7.48" height="13.8" x="-3.74" y="-6.9" fill="none" rx="0" ry="0" transform="translate(394.69 387.76)"></rect><path fill="#1e421d" d="M400.41 387.674q0-.55-.06-.93-.05-.37-.19-.6-.14-.22-.38-.31t-.51-.09q-.27 0-.33.01l-.03-.15q1.35-.41 2.52-.41.17.44.17.95v.24q.48-.33.89-.57.41-.24.8-.4.39-.17.81-.25.41-.09.91-.09.45 0 .89.12.45.12.8.41.35.3.57.82.22.51.22 1.3v5.16q0 .2.1.34.1.13.25.22t.35.15q.2.07.42.13l-.08.2q-.46-.1-1.23-.1-.48 0-1.11.14l-.05-.09q.17-.24.17-.88v-4.96q0-.7-.14-1.14-.13-.45-.36-.7-.22-.25-.53-.35-.3-.1-.64-.1-.42 0-.78.07-.36.08-.72.23-.36.15-.73.38-.38.23-.81.54v5.73q0 .26.04.42.04.16.18.27.13.11.37.19.24.09.63.19l-.07.2q-.48-.07-.81-.1-.34-.04-.55-.04-.47 0-1.1.14l-.05-.09q.17-.24.17-.88Z"></path><rect width="9.7" height="8.89" x="-4.85" y="-4.45" fill="none" rx="0" ry="0" transform="translate(404.26 390.02)"></rect><path fill="#1e421d" d="M416.99 388.034q0-.7-.14-1.14-.13-.45-.36-.7-.23-.25-.53-.35-.3-.1-.64-.1-.42 0-.78.07-.36.08-.72.23-.36.15-.74.38-.37.23-.8.54v5.73q0 .26.04.42.04.16.18.27.13.11.37.19.24.09.63.19l-.07.2q-.48-.07-.81-.1-.34-.04-.68-.04t-.97.14l-.05-.09q.16-.24.16-.88v-9.94q0-.56-.05-.93-.05-.38-.19-.6-.14-.22-.38-.31-.24-.1-.51-.1t-.33.01l-.03-.15q1.35-.4 2.52-.4.17.44.17.94v4.87q.57-.39 1.04-.65.47-.25.88-.4.41-.15.78-.21.37-.05.75-.05.53 0 .96.13.44.14.75.45.32.31.51.82.19.5.22 1.25v5.16q0 .2.1.34.09.13.25.22.15.09.35.15.2.07.42.13l-.08.2q-.46-.1-1.09-.1-.62 0-1.25.14l-.05-.09q.17-.24.17-.88Z"></path><rect width="9.7" height="13.39" x="-4.85" y="-6.7" fill="none" rx="0" ry="0" transform="translate(414.94 387.77)"></rect><path fill="#1e421d" d="M257.12 409.404q0 1.13.25 1.55.25.43.8.43.61 0 1.48-.46l.26.36q-1.37.75-2.24.75-.47 0-.76-.08-.29-.09-.53-.33-.24-.24-.34-.71-.11-.47-.11-1.21v-5.63l-1.24.07v-.53q.65-.14 1.24-.18v-1.18q.71-.4 1.16-1.14l.25.1q-.14.33-.18.75-.04.42-.04 1.42h2.85v.29q-.34.14-.7.24-.36.09-.74.09h-1.41Z"></path><rect width="5.28" height="10.92" x="-2.64" y="-5.46" fill="none" rx="0" ry="0" transform="translate(257.83 407.07)"></rect><path fill="#1e421d" d="M262.11 405.544q0-.56-.05-.93-.06-.38-.19-.6-.14-.22-.38-.32-.24-.09-.84-.08l-.03-.15q1.35-.41 2.51-.41.18.44.18.95v1.02l.03.04q.35-.49.67-.86.32-.37.65-.62t.7-.38q.36-.13.81-.13.28 0 .62.05l-.48 2.03-.31-.09q0-.13-.01-.34-.02-.22-.05-.43-.03-.21-.07-.37-.05-.15-.11-.15-.24 0-.48.1-.25.11-.54.34-.29.23-.64.6-.35.38-.79.91v4.83q0 .27.04.43.04.16.17.27.13.11.38.19.24.08.63.18l-.07.2q-.48-.07-.82-.1-.33-.03-.54-.03-.47 0-1.11.13l-.05-.08q.17-.24.17-.88Z"></path><rect width="6.17" height="8.77" x="-3.08" y="-4.38" fill="none" rx="0" ry="0" transform="translate(264.2 407.94)"></rect><path fill="#1e421d" d="M270.04 410.194q0 .66.31.97.31.32 1.09.46l-.07.2q-.95-.13-1.54-.13-.45 0-1.1.13l-.05-.08q.17-.24.17-.88v-5.32q0-1.18-.28-1.58-.28-.41-1.18-.35l-.04-.15q1.37-.41 2.52-.41.17.44.17.95Zm-2.07-11.97.16.05 1.93 3.27-.44.22-2.57-2.74-.04-.18q.39-.18.96-.62"></path><rect width="4.43" height="13.6" x="-2.21" y="-6.8" fill="none" rx="0" ry="0" transform="translate(269.73 405.52)"></rect><path fill="#1e421d" d="M273.57 405.544q0-.56-.05-.93-.05-.38-.19-.6-.14-.22-.38-.32-.24-.09-.51-.09t-.33.01l-.03-.15q1.35-.41 2.51-.41.18.44.18.95v.24q.48-.32.89-.56.4-.24.8-.41.39-.17.81-.25.41-.08.91-.08.45 0 .89.11.45.12.8.42.35.3.57.81.22.52.22 1.31v5.16q0 .2.1.33.09.13.25.23.15.09.35.15.2.06.41.13l-.07.2q-.47-.1-1.24-.1-.47 0-1.1.13l-.05-.08q.16-.24.16-.88v-4.97q0-.69-.13-1.14-.13-.44-.36-.69-.23-.26-.53-.36-.3-.1-.64-.1-.42 0-.78.08-.36.07-.72.23-.36.15-.74.38-.37.23-.8.53v5.73q0 .27.04.43.04.16.17.27.14.11.38.19t.63.18l-.07.2q-.48-.07-.82-.1-.33-.03-.54-.03-.47 0-1.1.13l-.05-.08q.16-.24.16-.88Z"></path><rect width="9.69" height="8.88" x="-4.84" y="-4.44" fill="none" rx="0" ry="0" transform="translate(277.43 407.88)"></rect><path fill="#1e421d" d="M290.15 405.894q0-.69-.13-1.14-.13-.44-.36-.69-.23-.26-.53-.36-.3-.1-.65-.1-.41 0-.77.08-.36.07-.72.23-.36.15-.74.38-.37.23-.8.53v5.73q0 .27.04.43.04.16.17.27.14.11.38.19t.63.18l-.07.2q-.48-.07-.82-.1-.33-.03-.67-.03t-.97.13l-.05-.08q.16-.24.16-.88v-9.95q0-.55-.05-.93-.06-.37-.19-.59-.14-.23-.38-.32t-.51-.09q-.27 0-.33.01l-.03-.15q1.35-.41 2.51-.41.18.44.18.95v4.86q.57-.39 1.04-.64.47-.25.88-.4.41-.15.78-.21.37-.06.75-.06.52 0 .96.14.43.13.75.45.32.31.51.81.19.51.22 1.26v5.16q0 .2.1.33.09.13.24.23.16.09.36.15.2.06.41.13l-.07.2q-.47-.1-1.09-.1-.62 0-1.25.13l-.05-.08q.16-.24.16-.88Z"></path><rect width="9.69" height="13.39" x="-4.84" y="-6.7" fill="none" rx="0" ry="0" transform="translate(288.1 405.63)"></rect><path fill="#1e421d" d="m296.12 411.284-.17.17q-.75.08-1.34.45-.36-.88-.49-1.47.84-.44 1.67-.53 0 .62.33 1.38"></path><rect width="2" height="2" x="-1" y="-1" fill="none" rx="0" ry="0" transform="translate(295.62 411.4)"></rect><path fill="#1e421d" d="M382.647 115.872c-.534-18.696-26.174-17.36-26.174-17.36l-14.155-15.224L310 81.15c-3.205-9.348-8.813-24.571-17.36-34.987-13.087-15.224-20.298-18.696-21.366-19.23 1.602-2.137 2.136-4.808 2.136-7.745 0-8.28-6.677-15.224-15.223-15.224-8.28 0-15.224 6.677-15.224 15.224 0 8.28 6.677 15.223 15.224 15.223h1.602c2.137 2.671 4.808 7.745 2.137 16.826-3.74 10.416-12.019 21.367-16.826 26.708l-37.124.534s-15.758-3.205-17.36 8.814c-.535 5.876 1.068 8.814 4.807 11.484l-2.67 10.417c-3.74-1.603-7.746-2.137-12.554-2.137-20.565 0-37.925 17.093-37.925 38.192s17.36 38.193 38.192 38.193c20.833 0 38.193-17.36 38.193-38.193 0-14.689-7.745-26.708-19.764-33.385l2.67-10.416c3.74 1.069 7.746 2.137 12.554 3.74 15.223 4.273 26.708 21.9 28.31 33.919 2.137 12.018 10.416 20.832 25.64 20.832 7.745 0 16.826-2.671 23.503-4.808h10.416c4.273 16.292 19.23 28.845 37.124 28.845 20.832 0 38.192-17.36 38.192-38.192 0-4.274-.534-8.28-2.136-12.02 4.273-2.67 8.012-8.011 7.478-17.893m-172.534 29.913c0 16.291-13.087 29.645-29.646 29.645-16.291 0-29.645-13.087-29.645-29.645 0-16.292 13.086-29.646 29.645-29.646 3.74 0 7.212.534 10.417 2.136l-2.137 8.28-13.621 21.366 3.739 4.808 15.758-23.503 2.136-8.28c8.28 4.808 13.354 14.422 13.354 24.839M310 146.852v-1.068c0-10.95 6.143-20.833 15.224-26.174l7.211 20.832-6.143 7.745zm29.112 28.043c-13.087 0-24.037-8.28-28.31-20.298l33.384-.534 4.808-5.342-10.416-11.484-7.211-21.366h2.67c16.292.534 25.64 7.745 30.18 13.62 2.671 4.274 4.274 9.348 4.274 15.224.534 17.093-12.553 30.18-29.379 30.18M41.04 188.484v-36.02h15.78v4.8H46.48v9.95h8.33v4.9h-8.33v11.52h11.96v4.85Z"></path><rect width="17.4" height="36.02" x="-8.7" y="-18.01" fill="none" rx="0" ry="0" transform="translate(50.24 170.97)"></rect><path fill="#1e421d" d="M72.11 188.974q-2.06 0-4.07-.52-2.01-.51-3.58-1.27-1.57-.76-2.35-1.55l2.6-4.65q.54.44 1.69 1.15t2.67 1.25q1.52.54 3.04.54 2.5 0 4.19-1.18 1.69-1.17 1.69-3.43 0-1.86-.98-3.08-.98-1.23-2.58-2.16-1.59-.93-3.43-1.79-1.83-.86-3.5-1.93-1.91-1.28-3.33-3.38-1.42-2.11-1.42-5.44 0-3.29 1.49-5.39 1.5-2.11 3.97-3.16 2.48-1.06 5.42-1.06 2.35 0 4.01.49 1.67.49 2.8 1.18 1.12.68 1.76 1.22l-2.6 4.46q-.83-.88-2.5-1.64-1.66-.76-3.72-.76-2.4 0-3.82 1.1-1.42 1.11-1.42 3.26 0 1.91 1.27 3.26 1.28 1.35 3.26 2.45 1.98 1.1 4.09 2.23t3.73 2.65q1.32 1.17 2.25 2.94.93 1.76.93 3.97 0 3.33-1.54 5.63-1.55 2.3-4.14 3.46-2.6 1.15-5.88 1.15"></path><rect width="21.56" height="37.05" x="-10.78" y="-18.52" fill="none" rx="0" ry="0" transform="translate(73.39 170.95)"></rect><path fill="#1e421d" d="M94.94 188.484v-31.22h-9.21v-4.8h23.96v4.8h-9.31v31.22Z"></path><rect width="23.96" height="36.02" x="-11.98" y="-18.01" fill="none" rx="0" ry="0" transform="translate(98.21 170.97)"></rect><path fill="#1e421d" d="M111.85 188.974q-1.47 0-2.5-1.01-1.03-1-1.03-2.47 0-1.52 1-2.53 1.01-1 2.53-1 1.56 0 2.54 1 .98 1.01.98 2.53 0 1.47-1 2.47-1.01 1.01-2.52 1.01"></path><rect width="7.05" height="7.01" x="-3.52" y="-3.5" fill="none" rx="0" ry="0" transform="translate(112.34 185.97)"></rect><path fill="#1e421d" d="m414.6 185.844 10.13-12.67q.82-1.07 1.86-2.6 1.05-1.54 1.85-3.2.8-1.66.8-3.1 0-2.25-1.21-3.48t-3.63-1.23q-1.68 0-2.83.74-1.15.73-1.87 1.72-.71.98-1.12 1.76l-3.82-2.05q.78-1.47 2.03-2.97 1.25-1.5 3.14-2.52 1.89-1.03 4.59-1.03 3.12 0 5.21 1.11t3.14 3.03q1.04 1.93 1.04 4.39 0 2.62-1.29 5.37t-3.63 5.62l-5.58 7.05h11.69v4.06Z"></path><rect width="20.5" height="30.63" x="-10.25" y="-15.31" fill="none" rx="0" ry="0" transform="translate(425.35 171.03)"></rect><path fill="#1e421d" d="M450.43 186.454q-2.99 0-5.08-1.23t-3.4-3.38q-1.32-2.15-1.91-5-.59-2.85-.59-6.05 0-3.32.57-6.15.57-2.83 1.84-4.94 1.28-2.11 3.39-3.3 2.11-1.19 5.18-1.19 4.1 0 6.48 2.01 2.38 2.01 3.43 5.52 1.04 3.5 1.04 8.05 0 4.39-1.09 7.96-1.08 3.56-3.48 5.63t-6.38 2.07m0-4.18q1.85 0 3.02-.98 1.17-.99 1.8-2.67.64-1.68.88-3.71.25-2.03.25-4.12 0-2.29-.25-4.34-.24-2.05-.88-3.65-.63-1.6-1.8-2.52-1.17-.93-3.02-.93-1.84 0-3.03.93-1.19.92-1.82 2.52-.64 1.6-.89 3.65-.24 2.05-.24 4.34 0 2.09.24 4.12.25 2.03.89 3.69.63 1.66 1.82 2.67 1.19 1 3.03 1"></path><rect width="21.93" height="31.24" x="-10.96" y="-15.62" fill="none" rx="0" ry="0" transform="translate(450.92 171.33)"></rect><path fill="#1e421d" d="m465.03 185.844 10.13-12.67q.82-1.07 1.86-2.6 1.05-1.54 1.85-3.2.8-1.66.8-3.1 0-2.25-1.21-3.48t-3.63-1.23q-1.68 0-2.83.74-1.15.73-1.87 1.72-.71.98-1.12 1.76l-3.82-2.05q.78-1.47 2.03-2.97 1.25-1.5 3.14-2.52 1.89-1.03 4.59-1.03 3.12 0 5.21 1.11t3.14 3.03q1.04 1.93 1.04 4.39 0 2.62-1.29 5.37t-3.63 5.62l-5.58 7.05h11.69v4.06Z"></path><rect width="20.5" height="30.63" x="-10.25" y="-15.31" fill="none" rx="0" ry="0" transform="translate(475.78 171.03)"></rect><path fill="#1e421d" d="M499.14 186.454q-2.7 0-4.98-.69-2.28-.7-3.83-2.05l2.09-3.86q.37.29 1.29.84.92.56 2.3 1.01 1.37.45 3.01.45 2.75 0 4.55-1.56 1.8-1.56 1.8-4.3 0-1.52-.63-2.85-.64-1.34-2.13-2.18-1.5-.84-4.08-.84-1.23 0-2.57.15-1.33.14-2.44.39-1.1.24-1.68.57l.62-15.83h15.46v4.02h-10.99l-.41 7.14q.57-.17 1.41-.25.84-.08 2.03-.08 4.76 0 7.48 2.48 2.73 2.48 2.73 6.83 0 3.11-1.29 5.51t-3.75 3.75q-2.46 1.35-5.99 1.35"></path><rect width="19.84" height="30.75" x="-9.92" y="-15.38" fill="none" rx="0" ry="0" transform="translate(500.75 171.58)"></rect></svg></svg>